<svg xmlns="http://www.w3.org/2000/svg" viewBox="0 0 415.998 415.998"><circle cx="208.239" cy="48" r="12"/><path d="M367.998 95.999c0-17.673-14.326-32-31.999-32h-44.424c-5.926-6.583-13.538-11.62-22.284-14.136-7.367-2.118-13.037-7.788-15.156-15.155C248.37 14.664 229.897 0 207.998 0c-21.898 0-40.37 14.663-46.134 34.706-2.122 7.376-7.806 13.039-15.182 15.165-8.736 2.518-16.341 7.55-22.262 14.128H79.999c-17.674 0-32 14.327-32 32v287.999c0 17.673 14.326 32 32 32h256c17.674 0 32-14.327 32-32l-.001-287.999zM128 95.741c.11-14.066 9.614-26.606 23.113-30.496 12.71-3.662 22.477-13.426 26.127-26.116C181.157 25.51 193.805 16 207.998 16c14.194 0 26.842 9.51 30.758 23.13 3.652 12.698 13.413 22.459 26.111 26.11 13.618 3.917 23.13 16.566 23.13 30.758v16H128V95.741zm207.999 304.257h-256c-8.823 0-16-7.178-16-16V95.999c0-8.822 7.177-16 16-16h34.742a47.85 47.85 0 00-2.74 15.617v32.383h191.998v-32c0-5.615-.992-10.991-2.764-16h34.764c8.822 0 15.999 7.178 15.999 16 0 45.743-.001 260.254.002 287.999-.001 8.822-7.178 16-16.001 16z"/><path d="M159.999 176h144v16h-144zM159.999 224h144v16h-144zM159.999 272h144v16h-144zM159.999 320h144v16h-144z"/><circle cx="119.999" cy="184" r="8"/><circle cx="119.999" cy="232" r="8"/><circle cx="119.999" cy="280" r="8"/><circle cx="119.999" cy="328" r="8"/></svg>